<svg class="icon" style="vertical-align: middle;fill: currentColor;overflow: hidden;" viewBox="0 0 1024 1024" version="1.1" xmlns="http://www.w3.org/2000/svg" p-id="36763"><path d="M384 1024C195.797333 1024 42.666667 870.869333 42.666667 682.666667c0-147.328 95.701333-278.250667 234.666667-323.968L277.333333 298.666667c0-11.776 9.557333-21.333333 21.333333-21.333333l170.666667 0c11.776 0 21.333333 9.557333 21.333333 21.333333l0 60.032c138.965333 45.717333 234.666667 176.64 234.666667 323.968C725.333333 870.869333 572.224 1024 384 1024zM320 320l0 54.528c0 9.6-6.4 18.005333-15.637333 20.565333C175.402667 430.741333 85.333333 548.992 85.333333 682.666667c0 164.693333 133.973333 298.666667 298.666667 298.666667s298.666667-133.973333 298.666667-298.666667c0-133.674667-90.069333-251.925333-219.029333-287.573333C454.421333 392.512 448 384.106667 448 374.528L448 320 320 320zM682.666667 341.333333c-58.816 0-106.666667-47.850667-106.666667-106.666667 0-47.061333-38.272-85.333333-85.333333-85.333333s-85.333333 38.272-85.333333 85.333333l0 64c0 11.776-9.557333 21.333333-21.333333 21.333333s-21.333333-9.557333-21.333333-21.333333l0-64c0-70.592 57.408-128 128-128s128 57.408 128 128c0 35.285333 28.714667 64 64 64s64-28.714667 64-64 28.714667-64 64-64c11.776 0 21.333333 9.557333 21.333333 21.333333s-9.557333 21.333333-21.333333 21.333333c-11.754667 0-21.333333 9.578667-21.333333 21.333333C789.333333 293.482667 741.482667 341.333333 682.666667 341.333333zM810.666667 128c-11.776 0-21.333333-9.557333-21.333333-21.333333L789.333333 21.333333c0-11.776 9.557333-21.333333 21.333333-21.333333s21.333333 9.557333 21.333333 21.333333l0 85.333333C832 118.442667 822.464 128 810.666667 128zM871.018667 153.002667c-5.461333 0-10.922667-2.090667-15.082667-6.250667-8.341333-8.32-8.341333-21.824 0-30.165333l60.330667-60.352c8.32-8.341333 21.824-8.341333 30.165333 0 8.341333 8.32 8.341333 21.824 0 30.165333l-60.330667 60.352C881.941333 150.912 876.458667 153.002667 871.018667 153.002667zM750.336 153.002667c-5.461333 0-10.922667-2.090667-15.082667-6.250667L674.922667 86.4c-8.341333-8.341333-8.341333-21.845333 0-30.165333 8.341333-8.341333 21.824-8.341333 30.165333 0l60.330667 60.352c8.341333 8.341333 8.341333 21.845333 0 30.165333C761.258667 150.912 755.797333 153.002667 750.336 153.002667zM981.333333 213.333333l-85.333333 0c-11.776 0-21.333333-9.557333-21.333333-21.333333s9.557333-21.333333 21.333333-21.333333l85.333333 0c11.776 0 21.333333 9.557333 21.333333 21.333333S993.109333 213.333333 981.333333 213.333333zM931.349333 333.973333c-5.461333 0-10.922667-2.090667-15.082667-6.229333l-60.373333-60.309333c-8.341333-8.341333-8.341333-21.824 0-30.186667 8.341333-8.341333 21.845333-8.32 30.186667 0l60.373333 60.309333c8.341333 8.341333 8.341333 21.824 0 30.186667C942.272 331.904 936.810667 333.973333 931.349333 333.973333zM191.530667 838.186667c-6.741333 0-13.376-3.178667-17.514667-9.130667-39.104-56.106667-54.016-124.074667-41.984-191.381333 12.010667-67.328 49.536-125.930667 105.642667-165.013333 9.685333-6.72 22.954667-4.352 29.696 5.312 6.741333 9.664 4.373333 22.976-5.312 29.696-96.512 67.264-120.298667 200.490667-53.034667 297.002667 6.741333 9.664 4.373333 22.976-5.312 29.696C199.978667 836.949333 195.733333 838.186667 191.530667 838.186667z" p-id="36764"></path></svg>