<svg class="icon" id="heart" style="vertical-align: middle;fill: currentColor;overflow: hidden;" viewBox="0 0 1024 1024" version="1.1" xmlns="http://www.w3.org/2000/svg" p-id="66541">
    <path id="heart-left" d="M492.523 823.797c-4.226 5.827-6.501 12.301-6.501 19.423l-0.651 98.409c0 14.89-16.904 23.631-29.257 14.891-110.851-78.015-333.529-255.734-383.916-451.904-38.034-148.261 56.239-347.021 283.468-307.528 55.588 9.711 108.9 48.881 132.631 85.784 2.926 4.208 8.452 19.099 8.452 19.099 0.163 0.324 0.244 0.567 0.325 0.809 0.081 0.243 0.163 0.486 0.325 0.81l44.536 119.126c3.901 10.683 2.275 22.66-4.876 31.4l-20.155 25.574c-0.325 0.323-0.65 0.728-0.975 1.133-0.325 0.404-0.651 0.809-0.976 1.133l-54.613 56.973c-9.752 10.359-11.702 25.574-4.876 37.875l84.195 153.44c6.177 11.006 5.202 24.926-2.6 34.961l-44.536 58.592z" fill="#F92F60" p-id="66542">
    </path>
    <path id="heart-right" d="M541.726 266.246c29.913-31.318 70.015-60.053 122.28-69.093 230.425-39.713 325.751 158.527 287.949 306.4-51.278 197.595-280.06 376.14-391.164 452.982-12.491 8.718-29.584 0-29.584-15.174l0.658-77.811c0-7.103 2.301-13.884 6.574-19.372l57.524-74.583c7.889-10.009 8.875-23.569 2.63-34.869l-82.506-148.519c-6.903-12.269-4.931-27.767 4.93-37.775l23.996-24.861c0.329-0.323 0.657-0.727 0.986-1.13 0.329-0.404 0.658-0.807 0.986-1.13l45.362-56.179c6.903-8.717 8.875-20.664 4.931-31.318l-58.51-154.653c-0.329-0.323-0.987-2.906-0.987-4.843 0-4.843 3.945-8.072 3.945-8.072z" fill="#F92F60" p-id="66543">
    </path>
</svg>