<svg class="icon" style="vertical-align: middle;fill: currentColor;overflow: hidden;" viewBox="0 0 1024 1024" version="1.1" xmlns="http://www.w3.org/2000/svg" p-id="9198"><path d="M956.608124 790.539854l-65.587787 102.317317-15.064091-28.045753c-4.613064-8.590656-5.256724-19.256576-1.718131-28.503171l27.437909-44.780903c0 0-51.036373-61.449537-90.724281-101.627608-17.645892 8.868995-30.136368 12.33391-32.108279 14.052041 10.095939 50.567699 65.62258 217.130226 65.62258 217.130226l-20.292162 0c-12.218276 0-23.290449-8.309246-28.253484-21.200858l-94.477768-191.532221c0 0-39.635719-1.759063-87.950098-5.715165-22.50762 52.996005-85.080747 107.948571-85.080747 107.948571l63.099107 110.499673-30.905894 0c-7.228635 0-13.783934-4.357238-17.242709-11.688203-12.137435-25.726941-42.534745-36.478819-73.487711-103.57189-2.595105-5.624091-0.966001-12.396331 3.539616-16.075117 34.019815-27.774577 56.834426-69.688175 68.047816-94.384647-8.42795-1.050935-16.72594-2.15406-24.654516-3.347235-34.206056 76.56377-72.662927 102.222149-145.919371 126.638235-6.206352 55.858192-17.853623 85.136006-23.930015 112.396883-2.246157 10.077519-10.081613 16.95516-19.089777 16.95516l-20.162202 0L307.706127 801.722544c0-9.590426 4.864798-18.21178 12.494569-21.99392 12.130272-6.013971 29.759791-16.514115 37.142945-29.605272 11.778254-20.887726 26.501584-46.170552 30.708396-79.149665 2.177596-17.067724 6.722098-64.36903 24.079418-109.509113-12.58155 14.867616-21.759583 31.264051-26.290783 48.559972-12.700253 48.474015-49.444109 126.283148-131.333164 138.190339-81.887009 11.907191-143.023414-22.560832-188.453093-55.149041 28.604478 0.627287 80.205717-11.280928 126.756939-38.22765 46.553269-26.946722 65.060785-82.096786 159.849638-139.125641 53.849442-32.398898 100.803847-43.935652 142.747121-45.930075 2.51324-0.839111 4.847401-1.923816 7.482415-2.592035 98.012268-24.868387 101.359502-8.707312 146.009422-19.893072 52.427046-13.133112 129.940444-23.685445 130.781602-55.014988s-6.730285-31.339776-26.501584-46.729278c-19.770276-15.390525-35.777855-2.90005-67.662029-21.661346-31.885198-18.760273-38.008662-39.729863-39.486316-44.142359-1.477654-4.414543 84.431971-19.940145 84.431971-19.940145 7.435343-14.573927 15.514345-26.278503 24.26566-35.732829l-23.444968-76.829829c-1.181919-3.873214 3.488451-6.843872 6.494924-4.13211l60.473303 54.534034c5.389754-1.324158 10.917654-2.338255 16.762779-2.697435-0.893346-64.135716-0.522909-98.859565-0.230244-113.694435 0.067538-3.420913 4.1536-4.946662 6.500041-2.455935 22.771633 24.183795 101.038184 115.088178 125.255749 245.317195 18.107403 97.380888 2.987031 207.312626-34.775015 269.908266-11.727089 19.438725-24.334221 35.222199-36.95261 48.346101l81.233116 132.973524C958.802092 779.844258 959.019033 785.786597 956.608124 790.539854z" fill="" p-id="9199"></path></svg>