<svg class="icon" style="vertical-align: middle;fill: currentColor;overflow: hidden;" viewBox="0 0 1168 1024" version="1.1" xmlns="http://www.w3.org/2000/svg" p-id="36025"><path d="M591.672222 361.391657a119.167676 119.167676 0 1 0 119.167676 119.167676 119.167676 119.167676 0 0 0-119.167676-119.167676z m0 181.573907a62.40623 62.40623 0 0 1 0-124.843821 62.40623 62.40623 0 1 1 0 124.843821z" fill="" p-id="36026"></path><path d="M1066.90037 88.999438l-774.589894-87.807761A106.372831 106.372831 0 0 0 208.610863 25.307451a107.815387 107.815387 0 0 0-41.144208 73.75852l-14.143321 116.188484h-43.903881A113.99329 113.99329 0 0 0 0.06743 333.010935v580.315222a107.815387 107.815387 0 0 0 104.930275 110.637779h783.151151a116.439363 116.439363 0 0 0 119.167676-110.637779V890.621579a141.840894 141.840894 0 0 0 53.907693-22.704579 117.75648 117.75648 0 0 0 41.144208-76.612271l65.259983-576.050274a114.902728 114.902728 0 0 0-100.728046-126.255017zM950.586446 913.326157a59.583838 59.583838 0 0 1-62.40623 53.907693H109.325373a51.085301 51.085301 0 0 1-52.559217-49.548665v-109.446102l219.895722-161.723081a68.082375 68.082375 0 0 1 87.807762 4.264949l154.635739 136.196109a133.373717 133.373717 0 0 0 83.699613 31.359915 129.108769 129.108769 0 0 0 68.082375-18.43963l279.47956-161.72308v275.151892z m0-341.823071l-309.271479 180.005911a72.347323 72.347323 0 0 1-83.699613-7.087341L401.474339 606.81435a126.255017 126.255017 0 0 0-157.458132-5.676144l-187.155971 136.164749V333.010935a57.263204 57.263204 0 0 1 52.465137-60.995035h778.823483a65.259983 65.259983 0 0 1 62.40623 60.995035v238.335352z m160.343244-363.775011v0.564479L1044.352591 784.123308a48.231549 48.231549 0 0 1-18.43963 38.290456c-5.676145 5.676145-18.43963 8.498537-18.43963 11.352289V333.010935a121.990068 121.990068 0 0 0-119.167676-117.75648H210.178859l12.543966-110.637779a65.259983 65.259983 0 0 1 21.293382-36.87926 65.259983 65.259983 0 0 1 42.555404-11.352289l773.147338 89.375757a56.730086 56.730086 0 0 1 51.210741 61.967191z" fill="" p-id="36027"></path></svg>