<svg class="icon" style="width: 1em;height: 1em;vertical-align: middle;fill: currentColor;overflow: hidden;" viewBox="0 0 1024 1024" version="1.1" xmlns="http://www.w3.org/2000/svg" p-id="65497"><path d="M64 0h896c36.266667 0 64 27.733333 64 64v896c0 36.266667-27.733333 64-64 64H64c-36.266667 0-64-27.733333-64-64V64c0-36.266667 27.733333-64 64-64z" fill="#f9d5e8" p-id="65498"></path><path d="M874.666667 874.666667H192c-6.4 0-14.933333-4.266667-17.066667-10.666667s-4.266667-12.8-2.133333-21.333333l228.266667-512c4.266667-6.4 10.666667-12.8 19.2-12.8s14.933333 4.266667 19.2 10.666666l164.266666 300.8 121.6-155.733333c4.266667-6.4 12.8-8.533333 19.2-8.533333 8.533333 2.133333 14.933333 6.4 17.066667 12.8l132.266667 364.8c2.133333 6.4 2.133333 12.8-2.133334 19.2s-10.666667 12.8-17.066666 12.8z" fill="#a3a3dc" p-id="65499"></path><path d="M768 213.333333m-64 0a64 64 0 1 0 128 0 64 64 0 1 0-128 0Z" fill="#a3a3dc" p-id="65500"></path></svg>