<svg class="icon" style="vertical-align: middle;fill: currentColor;overflow: hidden;" viewBox="0 0 1024 1024" version="1.1" xmlns="http://www.w3.org/2000/svg" p-id="14108">
<path d="M512 0C230.47 0 0 230.47 0 512s230.47 512 512 512 512-230.47 512-512S793.53 0 512 0zM246.54 346.32c0-22.59 18.83-41.42 45.18-41.42h436.79c26.36 0 45.18 18.83 45.18 41.42v3.77L510.12 508.23 246.54 350.09z m530.92 331.36c0 22.59-22.59 41.42-45.18 41.42H291.73c-26.36 0-45.18-18.83-45.18-41.42V399l252.27 150.65c3.77 3.77 7.53 3.77 11.3 3.77s7.53 0 15.06-3.77L777.46 399z" p-id="14109">
</path></svg>