<svg class="icon" style="width: 1em;height: 1em;vertical-align: middle;fill: currentColor;overflow: hidden;" viewBox="0 0 1024 1024" version="1.1" xmlns="http://www.w3.org/2000/svg" p-id="6026"><path d="M105.39008 206.24384l-10.72128-1.024 1.024-10.73152a7.51616 7.51616 0 0 0-6.7584-8.15104 7.50592 7.50592 0 0 0-8.1408 6.71744L79.75936 203.776l-10.73152-1.024a7.4752 7.4752 0 1 0-1.4336 14.90944l10.72128 1.024-1.024 10.73152a7.4752 7.4752 0 0 0 6.7072 8.1408 7.4752 7.4752 0 0 0 8.192-6.7072l1.03424-10.73152 10.73152 1.03424a7.50592 7.50592 0 0 0 8.15104-6.7584 7.50592 7.50592 0 0 0-6.71744-8.15104zM86.19008 599.58272l-10.77248-0.3584 0.3584-10.77248a7.49568 7.49568 0 0 0-14.97088-0.49152l-0.3584 10.78272-10.77248-0.3584a7.4752 7.4752 0 0 0-7.70048 7.20896 7.4752 7.4752 0 0 0 7.2192 7.76192l10.77248 0.34816-0.3584 10.77248a7.46496 7.46496 0 0 0 7.2192 7.70048 7.4752 7.4752 0 0 0 7.75168-7.20896l0.3584-10.77248 10.76224 0.34816a7.50592 7.50592 0 0 0 0.49152-14.97088zM901.70368 316.5696l10.77248 0.3584L912.11776 327.68a7.4752 7.4752 0 0 0 7.2192 7.71072 7.4752 7.4752 0 0 0 7.75168-7.2192l0.3584-10.77248 10.76224 0.3584c4.096 0.13312 7.5776-3.13344 7.71072-7.2704a7.50592 7.50592 0 0 0-7.2192-7.70048l-10.77248-0.3584 0.3584-10.76224a7.50592 7.50592 0 0 0-14.97088-0.49152l-0.3584 10.77248-10.77248-0.3584a7.46496 7.46496 0 0 0-7.70048 7.2192 7.4752 7.4752 0 0 0 7.2192 7.75168zM459.264 832.83968l-10.78272-0.34816 0.3584-10.77248a7.51616 7.51616 0 0 0-7.2704-7.71072 7.50592 7.50592 0 0 0-7.70048 7.2192l-0.3584 10.77248-10.76224-0.34816a7.46496 7.46496 0 0 0-7.71072 7.20896 7.4752 7.4752 0 0 0 7.2192 7.76192l10.77248 0.34816-0.3584 10.77248a7.46496 7.46496 0 0 0 7.2192 7.70048 7.4752 7.4752 0 0 0 7.75168-7.20896l0.3584-10.77248 10.77248 0.34816a7.49568 7.49568 0 0 0 0.49152-14.97088zM972.8 772.05504H705.8432a10.24 10.24 0 1 0 0 20.48H972.8a10.24 10.24 0 1 0 0-20.48zM632.8832 772.05504h-53.61664a41.33888 41.33888 0 0 0-40.0384-31.15008h-18.944l-9.6256-50.5856h-117.6576l-9.6256 50.5856h-15.7696c-11.264 0-21.7088 4.608-29.184 12.0832a41.1648 41.1648 0 0 0-10.68032 19.06688H136.2432a10.24 10.24 0 1 0 0 20.48h496.64a10.24 10.24 0 1 0 0-20.48zM82.91328 772.05504H51.2a10.24 10.24 0 1 0 0 20.48h31.71328a10.24 10.24 0 1 0 0-20.48zM186.34752 669.83936h534.4256c15.2576 0 27.4432-12.5952 27.4432-27.648v-43.52c-5.9392-2.56-10.9568-7.0656-14.1312-13.0048l-12.4928-24.3712c-8.192 0-16.2816-0.8192-24.064-2.3552v41.3696h-488.0384v-317.7472h18.8416v-50.688h-33.8944c-19.6608 0-35.6352 15.9744-35.6352 35.6352v374.6816c0 15.2576 12.1856 27.648 27.5456 27.648z m265.6256-50.4832c7.9872 0 14.5408 6.4512 14.5408 14.4384 0 7.9872-6.5536 14.4384-14.5408 14.4384s-14.4384-6.4512-14.4384-14.4384c0-7.9872 6.4512-14.4384 14.4384-14.4384zM697.52832 287.98976c8.3968-1.7408 16.9984-2.56 25.7024-2.56 8.4992 0 16.7936 0.7168 24.9856 2.2528v-20.1728c0-19.6608-15.872-35.6352-35.5328-35.6352h-33.8944v50.688h18.7392v5.4272zM657.69472 188.35456c0-16.4864-13.4144-29.7984-29.9008-29.7984h-349.184c-16.4864 0-29.7984 13.312-29.7984 29.7984v36.1472h408.8832v-36.1472z m-365.1584 16.1792c-7.168 0-13.0048-5.8368-13.0048-13.0048a13.04576 13.04576 0 1 1 26.112 0c0 7.168-5.8368 13.0048-13.1072 13.0048z m40.448 0c-7.168 0-13.0048-5.8368-13.0048-13.0048a13.04576 13.04576 0 1 1 13.0048 13.0048z m40.3456 0c-7.0656 0-12.9024-5.8368-12.9024-13.0048 0-7.2704 5.8368-13.1072 12.9024-13.1072 7.2704 0 13.2096 5.8368 13.2096 13.1072 0 7.168-5.9392 13.0048-13.2096 13.0048zM454.32832 382.18752c-8.448 0-14.7456 3.4304-19.27168 10.52672-4.56704 7.18848-6.88128 17.2544-6.88128 29.94176 0 12.77952 2.31424 22.89664 6.88128 30.07488 4.51584 7.09632 10.82368 10.5472 19.27168 10.5472s14.76608-3.45088 19.28192-10.5472c4.56704-7.168 6.88128-17.28512 6.88128-30.07488 0-12.6976-2.31424-22.76352-6.88128-29.94176-4.51584-7.09632-10.82368-10.52672-19.28192-10.52672zM559.96416 435.4048v-47.33952L523.264 435.41504zM658.30912 545.01376c-23.9616-12.8-44.032-32.5632-57.1392-57.5488a140.4928 140.4928 0 0 1-13.0048-37.4784c-0.512 0.1024-1.024 0.2048-1.536 0.2048h-10.3424v19.456c0 2.3552-0.8192 4.3008-2.4576 5.8368a7.8848 7.8848 0 0 1-5.7344 2.3552 8.2944 8.2944 0 0 1-5.8368-2.3552 8.0384 8.0384 0 0 1-2.2528-5.8368v-19.456h-45.2608c-2.7648 0-5.12-0.9216-7.0656-2.8672a9.28768 9.28768 0 0 1-2.9696-6.9632v-1.4336c0-2.4576 0.7168-4.5056 2.048-6.2464l47.8208-61.0304c0.9216-1.2288 2.1504-2.2528 3.6864-3.072 1.6384-0.7168 3.2768-1.024 4.9152-1.024h3.072c2.9696 0 5.4272 0.9216 7.2704 2.8672 1.8432 1.8432 2.7648 4.3008 2.7648 7.168v57.856h9.8304c-2.1504-23.6544 1.8432-47.7184 12.1856-70.144 13.0048-27.7504 33.9968-49.8688 60.0064-63.6928v-56.6272h-409.4976v334.848h409.4976v-34.816z m-84.3776-255.1808h28.7744a9.9328 9.9328 0 0 1 0 19.8656h-28.7744a9.9328 9.9328 0 0 1 0-19.8656z m-269.0048 0h226.304a9.9328 9.9328 0 0 1 0 19.8656h-226.304c-5.4272 0-9.9328-4.5056-9.9328-9.9328 0-5.5296 4.5056-9.9328 9.9328-9.9328z m191.8976 132.8128c0 16.896-3.6864 30.6176-10.8544 40.6528-7.3728 10.1376-18.0224 15.2576-31.6416 15.2576-13.7216 0-24.3712-5.12-31.6416-15.2576-7.168-10.0352-10.8544-23.7568-10.8544-40.6528s3.6864-30.6176 10.8544-40.5504c7.2704-10.24 17.92-15.36 31.6416-15.36 13.6192 0 24.2688 5.12 31.6416 15.2576 7.168 10.0352 10.8544 23.7568 10.8544 40.6528z m-173.2608 27.5456c-2.7648 0-5.12-0.9216-7.0656-2.8672a8.93952 8.93952 0 0 1-2.9696-6.9632v-1.4336c0-2.4576 0.7168-4.5056 2.048-6.2464l47.8208-61.0304c0.9216-1.2288 2.1504-2.2528 3.6864-3.072 1.536-0.7168 3.1744-1.024 4.9152-1.024h3.072c2.9696 0 5.4272 0.9216 7.2704 2.8672 1.8432 1.8432 2.7648 4.3008 2.7648 7.168v57.856h10.3424c2.048 0 3.7888 0.7168 5.2224 2.1504 1.536 1.4336 2.2528 3.2768 2.2528 5.3248s-0.7168 3.7888-2.2528 5.2224c-1.4336 1.3312-3.1744 2.048-5.2224 2.048h-10.3424v19.456c0 2.3552-0.8192 4.3008-2.4576 5.8368a8.2944 8.2944 0 0 1-5.8368 2.3552 7.8848 7.8848 0 0 1-5.7344-2.3552 8.13056 8.13056 0 0 1-2.3552-5.8368v-19.456h-45.1584z m6.656 105.3696h-25.2928c-5.4272 0-9.9328-4.5056-9.9328-10.0352s4.5056-9.9328 9.9328-9.9328h25.2928c5.4272 0 9.9328 4.4032 9.9328 9.9328s-4.5056 10.0352-9.9328 10.0352z m272.4864 0h-230.4c-5.632 0-9.9328-4.5056-9.9328-10.0352s4.3008-9.9328 9.9328-9.9328h230.4c5.5296 0 9.9328 4.4032 9.9328 9.9328s-4.4032 10.0352-9.9328 10.0352zM368.75264 388.06528l-36.7104 47.34976h36.7104zM697.52832 308.77696c-74.0352 16.384-114.4832 99.9424-78.2336 169.1648 22.6304 43.1104 68.5056 66.4576 114.4832 62.464l18.3296 35.6352c2.2528 4.1984 7.3728 5.7344 11.5712 3.584l8.3968-4.4032 44.544 84.8896c4.608 8.8064 13.6192 13.824 22.9376 13.824 3.9936 0 8.0896-1.024 11.8784-2.9696 12.5952-6.656 17.408-22.2208 10.8544-34.816l-44.6464-84.7872 7.9872-4.1984c4.1984-2.2528 5.8368-7.4752 3.584-11.6736l-17.6128-34.5088h-0.1024c31.232-35.4304 39.2192-87.7568 15.9744-132.096-25.3952-48.5376-79.9744-71.5776-129.9456-60.1088z m118.1696 114.5856c0 50.9952-41.3696 92.3648-92.4672 92.3648-50.9952 0-92.3648-41.3696-92.3648-92.3648 0-51.0976 41.3696-92.4672 92.3648-92.4672 51.0976 0 92.4672 41.3696 92.4672 92.4672zM656.56832 423.35232a10.24 10.24 0 1 0 20.48 0 46.26432 46.26432 0 0 1 46.1824-46.24384 10.24 10.24 0 1 0 0-20.48c-36.7616 0-66.6624 29.93152-66.6624 66.72384z" fill="#7d82e1" p-id="6027"></path></svg>