<svg class="icon" style="height: 120px; width: 120px; vertical-align: middle;fill: currentColor;overflow: hidden;" viewBox="0 0 1024 1024" version="1.1" xmlns="http://www.w3.org/2000/svg" p-id="2415"><path d="M856.96 160c36.576 0 66.752 27.52 70.624 62.944l0.416 7.68v562.72c0 36.48-27.776 66.4-63.296 70.24L856.96 864H512a30.432 30.432 0 0 1-27.136-16.672l-2.112-5.344-40.576-140.672a30.464 30.464 0 0 1 15.808-35.776l5.12-1.984 116.8-33.088-16.96-134.72a30.464 30.464 0 0 1 8.736-25.408l4.256-3.552 4.992-2.752 150.784-66.432-42.816-70.784a30.464 30.464 0 0 1-3.744-22.176l1.728-5.472 2.816-5.12 81.152-120.608a30.432 30.432 0 0 1 19.264-12.864L796.096 160h60.864z m-223.2 0a30.464 30.464 0 0 1 28.384 41.472l-2.368 4.8-50.816 83.808 29.76 44.16a30.496 30.496 0 0 1-2.432 37.152l-4.224 3.968-5.12 3.2-142.56 70.56 17.152 118.816a30.464 30.464 0 0 1-11.936 28.8l-4.672 2.848-5.216 2.016-112.992 31.936 52.864 191.904a30.496 30.496 0 0 1-19.008 36.8l-4.992 1.28-5.344 0.48H167.04a70.912 70.912 0 0 1-70.624-62.944L96 793.376V230.624c0-36.48 27.776-66.4 63.296-70.24L167.04 160h466.72zM266.4 255.84a80.352 80.352 0 1 0 0.064 160.704 80.352 80.352 0 0 0-0.064-160.704z" fill="#ffffff" p-id="2416"></path></svg>