<svg class="icon" style="vertical-align: middle;fill: currentColor;overflow: hidden;" viewBox="0 0 1024 1024" version="1.1" xmlns="http://www.w3.org/2000/svg" p-id="33755"><path d="M85.449143 956.397714c67.620571 67.602286 161.042286 63.908571 234.788571-9.435428 84.425143-84.406857 168.009143-253.238857 285.622857-370.834286 91.373714-91.373714 195.035429-2.468571 320.841143-122.934857 50.395429-47.926857 78.262857-116.772571 68.022857-166.765714l-157.348571 43.026285c-26.221714 6.948571-45.074286-9.837714-53.266286-38.107428l-11.885714-41.398857c-8.192-28.269714 1.645714-52.041143 27.849143-58.989715l156.946286-42.624c-4.498286-14.336-18.029714-34.011429-34.834286-51.218285C827.538286 0 668.964571 10.971429 577.590857 88.100571c-136.466286 129.901714-33.206857 267.154286-122.934857 356.900572-106.953143 106.953143-276.187429 192.182857-360.192 276.589714-73.746286 73.344-77.037714 166.765714-9.014857 234.788572z m38.948571-39.350857c-44.251429-45.074286-40.996571-108.580571 8.173715-157.348571 84.845714-84.406857 264.301714-178.651429 361.417142-275.766857 105.728-105.728-5.741714-237.659429 123.337143-356.900572 65.152-60.233143 177.024-64.731429 252.416-6.966857L789.028571 141.348571c-59.830857 15.579429-86.052571 61.458286-68.022857 123.757715l11.465143 39.734857 45.476572 166.765714c-70.473143 10.24-143.414857-2.029714-211.419429 65.170286-106.550857 106.532571-199.570286 287.232-284.379429 372.48-49.590857 49.974857-113.517714 53.266286-157.769142 7.771428z m476.525715-581.449143l88.118857-23.350857c7.789714-2.048 12.288-9.837714 10.24-18.450286a14.482286 14.482286 0 0 0-17.627429-10.24l-88.502857 23.771429a14.482286 14.482286 0 0 0-10.24 17.609143c2.450286 8.594286 9.417143 13.110857 18.029714 10.660571z m11.081142 45.074286l87.68-23.350857a14.482286 14.482286 0 0 0 10.24-18.450286c-2.029714-7.789714-10.24-11.885714-17.609142-10.24l-88.502858 24.173714c-7.789714 1.645714-12.288 9.837714-10.24 17.206858 2.450286 8.594286 9.819429 13.110857 18.432 10.660571z m235.611429-2.048l84.827429-22.948571c-9.435429 22.125714-22.948571 44.251429-42.605715 63.506285-24.192 23.369143-49.188571 36.882286-75.008 44.251429l-22.930285-83.565714c16.384 4.900571 35.236571 4.498286 55.716571-1.243429z m-224.950857 47.122286l88.905143-23.771429c7.387429-2.048 11.885714-10.24 10.24-18.029714a14.317714 14.317714 0 0 0-18.011429-9.837714l-88.100571 23.771428a14.866286 14.866286 0 0 0-10.660572 17.627429c1.645714 8.594286 9.837714 12.288 17.627429 10.24zM153.472 889.179429c25.819429 24.996571 70.070857 25.417143 94.665143-0.402286 25.819429-27.044571 27.044571-70.070857 0.402286-95.890286-26.624-25.398857-70.070857-26.624-95.890286 0.420572-25.398857 26.221714-25.801143 70.070857 0.822857 95.872z" p-id="33756"></path></svg>